# xmcd CD database file generated by GCD 2.96
# 
# Track frame offsets:
#       150
#       19963
#       37849
#       59133
#       76464
#       87031
#       107843
#       122764
#       138539
#       154279
#       171104
# 
# Disc length: 2568 seconds
# 
# Revision: 0
# Processed by: cddbd v1.4PL0 Copyright (c) Steve Scherf et al.
# Submitted via: GCD 2.96
# 
DISCID=910a060b
DTITLE=Jan James - Limousine Blues
DYEAR=1900
DGENRE=
TTITLE0=Build Me A Man
TTITLE1=I Got A Feelin'
TTITLE2=Rise Above
TTITLE3=Did What I Did
TTITLE4=Montgomery
TTITLE5=Limousine Blues
TTITLE6=Chain Of Fools
TTITLE7=Young Man
TTITLE8=Back Down To Memphis
TTITLE9=Fool Of Me
TTITLE10=Pack My Suitcase
EXTD=
EXTT0=
EXTT1=
EXTT2=
EXTT3=
EXTT4=
EXTT5=
EXTT6=
EXTT7=
EXTT8=
EXTT9=
EXTT10=
PLAYORDER=
